<svg width="80" height="80" viewBox="0 0 80 80" fill="none" xmlns="http://www.w3.org/2000/svg">
<g clip-path="url(#clip0_510_108)">
<path d="M73.3309 0H35.9976C34.2302 0.00211714 32.5357 0.705176 31.2859 1.95496C30.0361 3.20474 29.3331 4.89921 29.3309 6.66667V38.6667C29.3347 40.1415 29.8281 41.5733 30.7336 42.7373C27.4199 44.4644 23.7343 45.3556 19.9976 45.3333H10.6643C7.92779 45.352 5.30315 46.4217 3.33318 48.3211C1.36321 50.2206 0.198632 52.8045 0.0802986 55.5385C-0.0380345 58.2725 0.898933 60.9474 2.69741 63.01C4.4959 65.0725 7.01831 66.365 9.74295 66.62L14.0896 77.4867C14.3845 78.2301 14.8965 78.8675 15.5588 79.3158C16.2212 79.7641 17.0032 80.0025 17.8029 80H21.3309C21.9847 80.0001 22.6284 79.84 23.2059 79.5337C23.7834 79.2274 24.2771 78.7842 24.6436 78.2429C25.0102 77.7016 25.2385 77.0788 25.3086 76.4288C25.3786 75.7789 25.2884 75.1216 25.0456 74.5147L21.9403 66.752C27.5299 67.2069 32.7698 69.6557 36.7043 73.652C37.0218 73.9729 37.3997 74.2277 37.8162 74.4018C38.2327 74.576 38.6795 74.666 39.131 74.6667C39.5985 74.6653 40.0611 74.5715 40.4923 74.3907C41.1352 74.1251 41.6848 73.6747 42.0714 73.0965C42.4581 72.5182 42.6644 71.8383 42.6643 71.1427V62.5333C44.1713 62.2273 45.5262 61.4097 46.4995 60.219C47.4727 59.0283 48.0043 57.5378 48.0043 56C48.0043 54.4622 47.4727 52.9717 46.4995 51.781C45.5262 50.5903 44.1713 49.7727 42.6643 49.4667V45.3333H51.9976V54.36C51.9937 54.9334 52.158 55.4954 52.4701 55.9764C52.7822 56.4575 53.2284 56.8365 53.7536 57.0667C54.1366 57.2402 54.5518 57.3311 54.9723 57.3333C55.7088 57.3312 56.4182 57.0545 56.9616 56.5573L69.3003 45.3333H73.3309C75.0984 45.3312 76.7929 44.6282 78.0427 43.3784C79.2924 42.1286 79.9955 40.4341 79.9976 38.6667V6.66667C79.9955 4.89921 79.2924 3.20474 78.0427 1.95496C76.7929 0.705176 75.0984 0.00211714 73.3309 0ZM2.66428 56C2.6664 53.8789 3.50993 51.8453 5.00977 50.3455C6.5096 48.8457 8.5432 48.0021 10.6643 48H18.6643V64H10.6643C8.5432 63.9979 6.5096 63.1544 5.00977 61.6545C3.50993 60.1547 2.6664 58.1211 2.66428 56ZM22.5656 75.504C22.6466 75.7061 22.6769 75.9249 22.6538 76.1414C22.6307 76.3579 22.5549 76.5655 22.4331 76.7459C22.3113 76.9264 22.1472 77.0743 21.9551 77.1767C21.7629 77.2791 21.5487 77.3328 21.3309 77.3333H17.8029C17.5367 77.3333 17.2765 77.2535 17.056 77.1042C16.8355 76.955 16.6647 76.7432 16.5656 76.496L12.6336 66.6667H19.0336L22.5656 75.504ZM39.9976 71.1427C39.9989 71.3127 39.9486 71.4792 39.8534 71.6201C39.7582 71.761 39.6225 71.8698 39.4643 71.932C39.3176 71.9983 39.1539 72.0175 38.9958 71.9869C38.8378 71.9564 38.693 71.8775 38.5816 71.7613C34.0053 67.112 27.847 64.3551 21.3309 64.0387V47.9613C27.8484 47.6459 34.0083 44.8889 38.5856 40.2387C38.6972 40.1226 38.8419 40.0439 38.9999 40.0134C39.1579 39.9828 39.3215 40.0019 39.4683 40.068C39.6265 40.1303 39.7622 40.239 39.8574 40.3799C39.9526 40.5208 40.0029 40.6873 40.0016 40.8573L39.9976 71.1427ZM45.3309 56C45.3275 56.8243 45.0695 57.6275 44.5922 58.2996C44.1148 58.9717 43.4415 59.4799 42.6643 59.7547V52.2453C43.4415 52.5201 44.1148 53.0283 44.5922 53.7004C45.0695 54.3725 45.3275 55.1757 45.3309 56ZM77.3309 38.6667C77.3309 39.7275 76.9095 40.7449 76.1594 41.4951C75.4092 42.2452 74.3918 42.6667 73.3309 42.6667H68.7843C68.4523 42.6669 68.1323 42.791 67.8869 43.0147L55.1736 54.5813C55.1308 54.6247 55.0753 54.6533 55.0152 54.6631C54.955 54.673 54.8933 54.6635 54.839 54.636C54.7845 54.6142 54.7383 54.5758 54.7069 54.5263C54.6756 54.4767 54.6607 54.4185 54.6643 54.36V44C54.6643 43.6464 54.5238 43.3072 54.2738 43.0572C54.0237 42.8071 53.6846 42.6667 53.3309 42.6667H42.6643V40.8573C42.6663 40.1602 42.4608 39.4781 42.0741 38.8981C41.6873 38.318 41.1367 37.8662 40.4923 37.6C39.8593 37.3293 39.1595 37.2553 38.4839 37.3878C37.8083 37.5202 37.1882 37.8529 36.7043 38.3427C35.5848 39.4583 34.363 40.4662 33.0549 41.3533C32.3791 40.6214 32.0019 39.6629 31.9976 38.6667V6.66667C31.9976 5.6058 32.419 4.58839 33.1692 3.83824C33.9193 3.08809 34.9367 2.66667 35.9976 2.66667H73.3309C74.3918 2.66667 75.4092 3.08809 76.1594 3.83824C76.9095 4.58839 77.3309 5.6058 77.3309 6.66667V38.6667Z" fill="#00507C"/>
<path d="M38.6615 12.0007H55.9948C56.3484 12.0007 56.6876 11.8602 56.9376 11.6101C57.1877 11.3601 57.3281 11.0209 57.3281 10.6673C57.3281 10.3137 57.1877 9.97456 56.9376 9.72451C56.6876 9.47446 56.3484 9.33398 55.9948 9.33398H38.6615C38.3078 9.33398 37.9687 9.47446 37.7186 9.72451C37.4686 9.97456 37.3281 10.3137 37.3281 10.6673C37.3281 11.0209 37.4686 11.3601 37.7186 11.6101C37.9687 11.8602 38.3078 12.0007 38.6615 12.0007ZM70.6615 18.6673H38.6615C38.3078 18.6673 37.9687 18.8078 37.7186 19.0578C37.4686 19.3079 37.3281 19.647 37.3281 20.0007C37.3281 20.3543 37.4686 20.6934 37.7186 20.9435C37.9687 21.1935 38.3078 21.334 38.6615 21.334H70.6615C71.0151 21.334 71.3542 21.1935 71.6043 20.9435C71.8543 20.6934 71.9948 20.3543 71.9948 20.0007C71.9948 19.647 71.8543 19.3079 71.6043 19.0578C71.3542 18.8078 71.0151 18.6673 70.6615 18.6673ZM70.6615 25.334H49.3281C48.9745 25.334 48.6354 25.4745 48.3853 25.7245C48.1353 25.9746 47.9948 26.3137 47.9948 26.6673C47.9948 27.0209 48.1353 27.3601 48.3853 27.6101C48.6354 27.8602 48.9745 28.0007 49.3281 28.0007H70.6615C71.0151 28.0007 71.3542 27.8602 71.6043 27.6101C71.8543 27.3601 71.9948 27.0209 71.9948 26.6673C71.9948 26.3137 71.8543 25.9746 71.6043 25.7245C71.3542 25.4745 71.0151 25.334 70.6615 25.334ZM38.6615 28.0007H43.9948C44.3484 28.0007 44.6876 27.8602 44.9376 27.6101C45.1877 27.3601 45.3281 27.0209 45.3281 26.6673C45.3281 26.3137 45.1877 25.9746 44.9376 25.7245C44.6876 25.4745 44.3484 25.334 43.9948 25.334H38.6615C38.3078 25.334 37.9687 25.4745 37.7186 25.7245C37.4686 25.9746 37.3281 26.3137 37.3281 26.6673C37.3281 27.0209 37.4686 27.3601 37.7186 27.6101C37.9687 27.8602 38.3078 28.0007 38.6615 28.0007ZM65.3281 32.0007H38.6615C38.3078 32.0007 37.9687 32.1411 37.7186 32.3912C37.4686 32.6412 37.3281 32.9804 37.3281 33.334C37.3281 33.6876 37.4686 34.0267 37.7186 34.2768C37.9687 34.5268 38.3078 34.6673 38.6615 34.6673H65.3281C65.6817 34.6673 66.0209 34.5268 66.2709 34.2768C66.521 34.0267 66.6615 33.6876 66.6615 33.334C66.6615 32.9804 66.521 32.6412 66.2709 32.3912C66.0209 32.1411 65.6817 32.0007 65.3281 32.0007Z" fill="#00507C"/>
</g>
<defs>
<clipPath id="clip0_510_108">
<rect width="80" height="80" fill="white"/>
</clipPath>
</defs>
</svg>
