<svg width="100" height="100" viewBox="0 0 100 100" fill="none" xmlns="http://www.w3.org/2000/svg">
<path d="M12.1605 60.9984H43.7342L46.9912 79.6023C47.061 80.0005 47.2525 80.3673 47.5395 80.652C47.8265 80.9367 48.1948 81.1253 48.5935 81.1918C48.9923 81.2584 49.4018 81.1996 49.7657 81.0235C50.1296 80.8474 50.4299 80.5628 50.6252 80.2088L54.3094 73.5291L61.7316 80.9514C62.4842 81.7037 63.7414 81.7039 64.4937 80.9514L70.9432 74.502C71.6951 73.75 71.6951 72.4918 70.9432 71.7396L63.5299 64.3264L69.6328 60.998H87.8392C94.5445 60.998 99.9998 55.5428 99.9998 48.8375V30.643C99.9998 23.9377 94.5445 18.4824 87.8392 18.4824H57.2734C56.1947 18.4824 55.3203 19.3568 55.3203 20.4355C55.3203 21.5143 56.1947 22.3887 57.2734 22.3887H87.8394C92.391 22.3887 96.0937 26.0914 96.0937 30.643V48.8375C96.0937 53.3889 92.391 57.0918 87.8394 57.0918H69.3082L44.96 52.8281C43.6486 52.599 42.4695 53.7775 42.6992 55.0891L43.05 57.0918H12.1605C7.60898 57.0922 3.90625 53.3895 3.90625 48.8379V30.6434C3.90625 26.092 7.60898 22.3891 12.1605 22.3891H40.0859C41.1646 22.3891 42.0391 21.5146 42.0391 20.4359C42.0391 19.3572 41.1646 18.4828 40.0859 18.4828H12.1605C5.45527 18.483 0 23.9381 0 30.6434V48.8379C0 55.5434 5.45527 60.9984 12.1605 60.9984ZM66.8002 73.1213L63.1129 76.8084L55.235 68.9303C54.3297 68.0252 52.7609 68.249 52.1436 69.3682L49.8828 73.4672L47.0271 57.157L63.2955 60.0055L59.368 62.1475C58.2428 62.7613 58.0141 64.3352 58.9221 65.2434L66.8002 73.1213Z" fill="#00507C"/>
<path d="M46.0992 33.7212V45.504C46.0992 46.5827 46.9736 47.4571 48.0523 47.4571C49.131 47.4571 50.0054 46.5827 50.0054 45.504V39.9864L54.4127 46.3682C54.9591 47.1579 55.9144 47.5048 56.7904 47.2311C57.6939 46.9491 58.2777 46.1149 58.2775 45.0872L58.1674 33.6802C58.157 32.6016 57.2664 31.7309 56.1955 31.746C55.117 31.7563 54.2509 32.6393 54.2613 33.7179L54.3158 39.3536L49.6595 32.611C49.4229 32.2683 49.0829 32.0102 48.6891 31.8744C48.2954 31.7386 47.8685 31.7322 47.4709 31.8562C47.0733 31.9802 46.7257 32.228 46.4789 32.5635C46.2322 32.899 46.0991 33.3047 46.0992 33.7212ZM21.9545 33.6991V45.504C21.9545 46.5827 22.8289 47.4571 23.9076 47.4571C24.9863 47.4571 25.8607 46.5827 25.8607 45.504V33.6991C25.8607 32.6204 24.9863 31.746 23.9076 31.746C22.8289 31.746 21.9545 32.6204 21.9545 33.6991ZM36.7115 35.6522C37.5033 35.6522 38.2662 35.885 38.9179 36.3255C39.8119 36.9294 41.0257 36.6944 41.6297 35.8007C42.2336 34.9069 41.9986 33.6929 41.1049 33.0889C39.8079 32.2114 38.2773 31.7436 36.7113 31.7462C32.3797 31.7462 28.8556 35.27 28.8556 39.6016C28.8556 43.9333 32.3797 47.4573 36.7113 47.4573C40.8613 47.4573 43.7595 44.2268 43.7595 39.6016C43.7595 38.5229 42.8851 37.6485 41.8064 37.6485H38.2754C37.1966 37.6485 36.3222 38.5229 36.3222 39.6016C36.3222 40.6804 37.1966 41.5548 38.2754 41.5548H39.5242C39.0965 42.6856 38.2203 43.5511 36.7115 43.5511C34.5338 43.5511 32.7621 41.7794 32.7621 39.6016C32.7621 37.4239 34.5338 35.6522 36.7115 35.6522ZM13.8011 43.5509C12.7836 43.5509 11.8082 43.155 11.1775 42.4886C10.4588 41.7294 9.27771 41.5753 8.46384 42.2315C7.582 42.9429 7.49021 44.2378 8.24021 45.0655C9.61755 46.5854 11.6445 47.4571 13.8011 47.4571C16.5207 47.4571 18.8074 45.704 19.2386 43.2888C19.5666 41.4526 18.757 39.0628 15.5021 37.862C14.139 37.3593 12.864 36.8134 12.3861 36.6054C12.316 36.5296 12.289 36.4309 12.3064 36.311C12.3422 36.0624 12.5623 35.8595 12.9103 35.7546C14.3371 35.3249 15.708 36.4093 15.7218 36.4204L15.7066 36.4077L16.0373 36.6122C16.4096 36.8425 16.8504 36.9362 17.2841 36.8772C17.7179 36.8183 18.1177 36.6103 18.415 36.2889L18.4826 36.2159C19.2457 35.3911 19.1234 34.0862 18.2201 33.4177C17.133 32.5038 14.5539 31.18 11.7838 32.0143C9.97419 32.5595 8.69294 33.9932 8.43982 35.7559C8.20075 37.4214 8.92341 39.0239 10.3254 39.9382C10.4117 39.9944 10.5023 40.0438 10.5963 40.0856C10.6652 40.1165 12.3049 40.8464 14.1504 41.527C14.7715 41.7559 15.4695 42.1751 15.3933 42.6022C15.325 42.9848 14.7717 43.5509 13.8011 43.5509ZM67.9808 31.3331C66.9021 31.3331 66.0277 32.2075 66.0277 33.2862V41.4093C66.0277 43.3643 66.9541 44.9475 68.781 46.1145C70.5732 47.2597 72.9433 47.3431 74.8373 46.3891C76.965 45.3177 78.1367 43.546 78.1367 41.4007V33.2862C78.1367 32.2075 77.2623 31.3331 76.1836 31.3331C75.1049 31.3331 74.2304 32.2075 74.2304 33.2862V41.4007C74.2304 41.8788 74.0912 42.3913 73.0802 42.9003C72.4082 43.2388 71.5242 43.2315 70.8842 42.8227C70.0066 42.262 69.934 41.8341 69.934 41.4093V33.2862C69.934 32.2077 69.0595 31.3331 67.9808 31.3331ZM84.8892 44.7852V41.6005C85.4017 41.5981 85.9019 41.5964 86.223 41.5964C89.1728 41.5964 91.5728 39.2257 91.5728 36.3118C91.5728 33.3979 89.1728 31.0272 86.223 31.0272H82.9361C81.8732 31.0272 80.983 31.9173 80.983 32.9804V44.7852C80.983 45.8639 81.8574 46.7384 82.9361 46.7384C84.0148 46.7384 84.8892 45.8638 84.8892 44.7852ZM86.223 34.9335C87.0054 34.9335 87.6666 35.5645 87.6666 36.3118C87.6666 37.0591 87.0056 37.6901 86.223 37.6901C85.9043 37.6901 85.4101 37.6919 84.9017 37.6942C84.8994 37.1622 84.8963 35.4931 84.8949 34.9337H86.223V34.9335ZM47.2461 21.521C47.7076 22.2138 48.5877 22.5401 49.3894 22.3171C50.1773 22.0979 50.7527 21.3956 50.816 20.5804C50.9496 18.8602 48.8353 17.8341 47.5574 18.9888C46.8433 19.6337 46.7242 20.7227 47.2461 21.521Z" fill="#00507C"/>
</svg>
