<svg width="77" height="77" viewBox="0 0 77 77" fill="none" xmlns="http://www.w3.org/2000/svg">
<path d="M35.2908 70.5851C15.8328 70.5851 0 54.7524 0 35.2938C0 15.8352 15.8328 0.00195312 35.2908 0.00195312C42.0569 0.00195312 48.6399 1.92996 54.3281 5.58099C55.4449 6.30016 55.772 7.78873 55.053 8.90839C54.3316 10.0282 52.8459 10.3518 51.7263 9.63327C46.8177 6.47928 41.133 4.81445 35.2908 4.81445C18.4857 4.81445 4.81235 18.4883 4.81235 35.2938C4.81235 52.0988 18.4857 65.7726 35.2908 65.7726C52.0952 65.7726 65.7686 52.0988 65.7686 35.2938C65.7686 34.2892 65.7205 33.2947 65.6277 32.3165C65.4995 30.9911 66.4683 29.8169 67.7899 29.6888C69.1181 29.5666 70.289 30.5294 70.4176 31.8514C70.5269 32.9956 70.5814 34.1444 70.5809 35.2938C70.5809 54.7524 54.7487 70.5851 35.2908 70.5851Z" fill="#00507C"/>
<path d="M39.303 43.3142C38.6874 43.3142 38.0712 43.0797 37.6029 42.6085L23.1659 28.171C22.226 27.2306 22.226 25.7067 23.1659 24.7668C24.1058 23.8269 25.6296 23.8269 26.5696 24.7668L39.3065 37.5041L72.8931 3.91589C73.8336 2.97595 75.3575 2.97595 76.2974 3.91589C77.2373 4.85583 77.2373 6.37974 76.2974 7.31968L41.0066 42.6115C40.5542 43.0621 39.9415 43.3148 39.303 43.3142Z" fill="#00507C"/>
</svg>
