<svg width="80" height="80" viewBox="0 0 80 80" fill="none" xmlns="http://www.w3.org/2000/svg">
<g clip-path="url(#clip0_510_115)">
<path d="M19.6406 19.6875C18.7781 19.6875 18.0781 20.3875 18.0781 21.25C18.0781 22.1125 18.7781 22.8125 19.6406 22.8125C20.5031 22.8125 21.2031 22.1125 21.2031 21.25C21.2031 20.3875 20.5031 19.6875 19.6406 19.6875ZM33.7023 48.9047H29.0152V44.2175C29.0152 43.3547 28.3155 42.655 27.4527 42.655C26.5898 42.655 25.8903 43.3547 25.8903 44.2175V48.9047H21.2031C20.3403 48.9047 19.6406 49.6044 19.6406 50.467C19.6406 51.3297 20.3403 52.0295 21.2031 52.0295H25.8903V56.7167C25.8903 57.5795 26.59 58.2792 27.4527 58.2792C28.3153 58.2792 29.0152 57.5795 29.0152 56.7167V52.0295H33.7023C34.5652 52.0295 35.2648 51.3298 35.2648 50.467C35.2648 49.6042 34.5653 48.9047 33.7023 48.9047Z" fill="#00507C"/>
<path d="M75.8714 50.31C72.4175 44.3278 64.7806 42.2805 58.7973 45.7352L52.4508 49.3992V35.8311C52.4508 34.1538 51.8961 32.4892 50.8884 31.1439L43.0764 20.7281V16.2928C44.8948 15.6478 46.2013 13.9113 46.2013 11.8742V4.68719C46.2009 2.10266 44.0983 0 41.5137 0H13.3902C10.8056 0 8.70281 2.10266 8.70281 4.68719V11.8744C8.70281 13.9111 10.0092 15.648 11.8277 16.293V20.7283L4.015 31.1447C3.00781 32.4894 2.45312 34.1538 2.45312 35.8311V66.0905C2.45312 70.3981 5.95766 73.9025 10.2652 73.9025H35.3748C38.8781 79.7748 46.4322 81.7402 52.3536 78.3211L71.2967 67.3841C77.2272 63.9594 79.3427 56.3248 75.8714 50.31ZM11.8277 4.68719C11.8277 3.82562 12.5286 3.12469 13.39 3.12469H41.5136C42.3752 3.12469 43.0761 3.82562 43.0761 4.68719V11.8744C43.0761 12.7359 42.3752 13.4367 41.5136 13.4367H13.3902C12.5286 13.4367 11.8278 12.7358 11.8278 11.8744L11.8277 4.68719ZM6.51562 33.0186L14.64 22.1864C14.8429 21.9159 14.9525 21.587 14.9525 21.2489V16.5617H39.9512V19.6866H25.8895C25.0267 19.6866 24.327 20.3863 24.327 21.2491C24.327 22.1119 25.0267 22.8116 25.8895 22.8116H40.7325L48.3877 33.0181C48.888 33.6861 49.1988 34.4853 49.2927 35.3109H5.61125C5.705 34.4852 6.01578 33.6859 6.51562 33.0186ZM10.2653 70.7777C7.68078 70.7777 5.57812 68.675 5.57812 66.0905V64.5125H33.9648C33.4694 66.5383 33.4727 68.702 34.04 70.7778H10.2653V70.7777ZM35.1903 61.4031H5.57797V38.4355H49.3258V51.2031L39.8541 56.6722C37.8792 57.813 36.283 59.4369 35.1903 61.4031ZM50.7914 75.6148C46.3075 78.2041 40.5778 76.6728 37.9869 72.1858C35.3836 67.6555 36.9613 61.9517 41.4169 59.3781L49.8977 54.4816L59.2722 70.7183L50.7914 75.6148ZM69.7342 64.678L61.9784 69.1559L52.6038 52.9189L60.3597 48.4414C64.8466 45.8511 70.5742 47.385 73.1652 51.8722C75.7675 56.3819 74.185 62.1078 69.7342 64.678Z" fill="#00507C"/>
</g>
<defs>
<clipPath id="clip0_510_115">
<rect width="80" height="80" fill="white"/>
</clipPath>
</defs>
</svg>
