<svg width="53" height="53" viewBox="0 0 53 53" fill="none" xmlns="http://www.w3.org/2000/svg">
<path d="M17.1073 43.4598H35.8905C39.1871 43.4598 41.8689 40.778 41.8689 37.4814V19.6098C41.8689 19.0268 41.3919 18.5498 40.8089 18.5498H34.4489V16.9598C34.4489 12.5767 30.882 9.00977 26.4989 9.00977C22.1158 9.00977 18.5489 12.5767 18.5489 16.9598V18.5498H12.1889C11.6059 18.5498 11.1289 19.0268 11.1289 19.6098V37.4814C11.1289 40.778 13.8107 43.4598 17.1073 43.4598ZM20.6689 16.9598C20.6689 13.7427 23.2818 11.1298 26.4989 11.1298C29.716 11.1298 32.3289 13.7427 32.3289 16.9598V18.5498H20.6689V16.9598ZM13.2489 20.6698H18.5489V23.3198C18.5489 23.9028 19.0259 24.3798 19.6089 24.3798C20.1919 24.3798 20.6689 23.9028 20.6689 23.3198V20.6698H32.3289V23.3198C32.3289 23.9028 32.8059 24.3798 33.3889 24.3798C33.9719 24.3798 34.4489 23.9028 34.4489 23.3198V20.6698H39.7489V37.4814C39.7489 39.6067 38.0158 41.3398 35.8905 41.3398H17.1073C14.982 41.3398 13.2489 39.6067 13.2489 37.4814V20.6698Z" fill="#00507C"/>
</svg>
