<svg width="21" height="20" viewBox="0 0 21 20" fill="none" xmlns="http://www.w3.org/2000/svg">
<path d="M3.34191 8.10096H7.68517C7.77378 8.10096 7.85876 8.06385 7.92141 7.99779C7.98407 7.93174 8.01927 7.84214 8.01927 7.74872C8.01927 7.6553 7.98407 7.56571 7.92141 7.49965C7.85876 7.43359 7.77378 7.39648 7.68517 7.39648H3.34191C3.2533 7.39648 3.16832 7.43359 3.10567 7.49965C3.04301 7.56571 3.00781 7.6553 3.00781 7.74872C3.00781 7.84214 3.04301 7.93174 3.10567 7.99779C3.16832 8.06385 3.2533 8.10096 3.34191 8.10096ZM12.0284 9.50991H3.34191C3.2533 9.50991 3.16832 9.54702 3.10567 9.61308C3.04301 9.67914 3.00781 9.76873 3.00781 9.86215C3.00781 9.95557 3.04301 10.0452 3.10567 10.1112C3.16832 10.1773 3.2533 10.2144 3.34191 10.2144H12.0284C12.117 10.2144 12.202 10.1773 12.2647 10.1112C12.3273 10.0452 12.3625 9.95557 12.3625 9.86215C12.3625 9.76873 12.3273 9.67914 12.2647 9.61308C12.202 9.54702 12.117 9.50991 12.0284 9.50991ZM12.0284 11.6233H3.34191C3.2533 11.6233 3.16832 11.6605 3.10567 11.7265C3.04301 11.7926 3.00781 11.8822 3.00781 11.9756C3.00781 12.069 3.04301 12.1586 3.10567 12.2247C3.16832 12.2907 3.2533 12.3278 3.34191 12.3278H12.0284C12.117 12.3278 12.202 12.2907 12.2647 12.2247C12.3273 12.1586 12.3625 12.069 12.3625 11.9756C12.3625 11.8822 12.3273 11.7926 12.2647 11.7265C12.202 11.6605 12.117 11.6233 12.0284 11.6233Z" fill="url(#paint0_linear_1393_287)"/>
<path d="M18.0653 0.0246567L6.65855 0C5.56606 0 4.67736 0.936954 4.67736 2.08877V3.89364L1.9812 3.89963C0.888698 3.89963 0 4.83658 0 5.9884V13.4351C0 14.5869 0.888698 15.5235 1.9812 15.5235H4.00916V19.0459C4.00914 19.117 4.02953 19.1864 4.06765 19.2451C4.10577 19.3038 4.15983 19.3489 4.22274 19.3745C4.28564 19.4002 4.35444 19.4052 4.42008 19.3888C4.48572 19.3725 4.54513 19.3355 4.59049 19.2829L7.83257 15.5228L13.3873 15.4988C14.4798 15.4988 15.3685 14.5619 15.3685 13.4104V13.3706L17.1258 15.4087C17.1713 15.4609 17.2307 15.4975 17.2962 15.5136C17.3618 15.5298 17.4304 15.5247 17.4931 15.4991C17.5559 15.4735 17.6099 15.4286 17.6481 15.3702C17.6862 15.3117 17.7068 15.2425 17.7071 15.1716V11.6492H18.0646C19.1571 11.6492 20.0458 10.7123 20.0458 9.5608V2.11343C20.0452 1.55977 19.8364 1.02897 19.4651 0.637413C19.0938 0.245854 18.5904 0.0254956 18.0653 0.0246567ZM14.7003 13.4101C14.6998 13.7773 14.5612 14.1293 14.3147 14.3888C14.0683 14.6483 13.7342 14.794 13.3859 14.794L7.68289 14.8187C7.63657 14.8188 7.59079 14.8292 7.54846 14.849C7.50613 14.8688 7.46817 14.8977 7.437 14.9338L4.67736 18.1346V15.1709C4.67736 15.0775 4.64216 14.9879 4.5795 14.9218C4.51685 14.8558 4.43187 14.8187 4.34326 14.8187H1.9812C1.63313 14.8183 1.29942 14.6724 1.05327 14.4129C0.807122 14.1535 0.668636 13.8017 0.668194 13.4347V5.98805C0.668636 5.62093 0.807204 5.269 1.05349 5.00947C1.29977 4.74995 1.63365 4.60403 1.98186 4.60375L5.01146 4.59706H5.01212L13.3873 4.57874C13.7354 4.57912 14.0691 4.72508 14.3153 4.98461C14.5615 5.24413 14.6999 5.59602 14.7003 5.96304V13.4101ZM19.3776 9.5601C19.3772 9.92706 19.2387 10.2789 18.9925 10.5383C18.7464 10.7978 18.4127 10.9437 18.0646 10.944H17.373C17.2844 10.944 17.1995 10.9812 17.1368 11.0472C17.0741 11.1133 17.0389 11.2029 17.0389 11.2963V14.26L15.3685 12.3227V5.96339C15.3685 4.81157 14.4798 3.87462 13.3866 3.87462L5.34555 3.89188V2.08842C5.34591 1.72152 5.48426 1.36974 5.73028 1.11024C5.97629 0.850731 6.30988 0.704684 6.65788 0.704124L18.0643 0.728781H18.065C18.4131 0.729154 18.7468 0.875119 18.993 1.13464C19.2392 1.39417 19.3776 1.74605 19.378 2.11308L19.3776 9.5601Z" fill="url(#paint1_linear_1393_287)"/>
<defs>
<linearGradient id="paint0_linear_1393_287" x1="7.68517" y1="7.39648" x2="7.68517" y2="12.3278" gradientUnits="userSpaceOnUse">
<stop stop-color="#F53D47" stop-opacity="0.7"/>
<stop offset="0.505" stop-color="#41C7D2" stop-opacity="0.7"/>
<stop offset="1" stop-color="#00507C" stop-opacity="0.78"/>
</linearGradient>
<linearGradient id="paint1_linear_1393_287" x1="10.0229" y1="0" x2="10.0229" y2="19.3982" gradientUnits="userSpaceOnUse">
<stop stop-color="#F53D47" stop-opacity="0.7"/>
<stop offset="0.505" stop-color="#41C7D2" stop-opacity="0.7"/>
<stop offset="1" stop-color="#00507C" stop-opacity="0.78"/>
</linearGradient>
</defs>
</svg>
