<svg width="21" height="21" viewBox="0 0 21 21" fill="none" xmlns="http://www.w3.org/2000/svg">
<g clip-path="url(#clip0_1393_292)">
<path d="M11.9318 10.1521L17.1952 10.2088C17.8589 10.2159 18.4085 9.67927 18.4157 9.01716C18.4228 8.35396 17.8849 7.80668 17.2213 7.79953C17.8849 7.80668 18.4346 7.27003 18.4417 6.60792C18.4489 5.94472 17.911 5.39745 17.2474 5.3903C17.911 5.39745 18.4606 4.8608 18.4678 4.19869C18.475 3.53549 17.9371 2.98708 17.2735 2.97993L16.3546 2.97003C17.0183 2.97718 17.5679 2.44163 17.5751 1.77842C17.5822 1.11631 17.0443 0.567947 16.3807 0.560796L10.9197 0.501952C9.65465 0.48832 7.41172 1.09309 6.42847 1.90415" stroke="#00507C" stroke-width="1.25" stroke-miterlimit="10" stroke-linecap="round" stroke-linejoin="round"/>
<path d="M6.35286 8.87924C8.64741 10.3745 9.33536 12.1348 9.74897 14.9364C9.87922 15.8237 10.1309 16.6701 11.4039 16.0527C12.2396 15.6476 12.9749 14.258 12.5832 12.7168L11.9317 10.1519M17.2213 7.79933L15.5755 7.7816M17.2473 5.39009L15.6016 5.37236M16.3545 2.96983L15.6277 2.96199" stroke="#00507C" stroke-width="1.25" stroke-miterlimit="10" stroke-linecap="round" stroke-linejoin="round"/>
<path d="M6.35311 8.8793L6.42862 1.90396M4.43779 7.82774L4.43781 7.82555M5.74619 0.761621L3.09947 0.733102C2.71773 0.728989 2.40138 1.03786 2.39726 1.41874L2.31219 9.27758C2.30807 9.65846 2.61765 9.97408 2.9994 9.97819L5.64612 10.0067C6.02786 10.0108 6.34421 9.70195 6.34833 9.32107L6.4334 1.46219C6.43752 1.08132 6.12794 0.765735 5.74619 0.761621Z" stroke="#00507C" stroke-width="1.25" stroke-miterlimit="10" stroke-linecap="round" stroke-linejoin="round"/>
</g>
<defs>
<clipPath id="clip0_1393_292">
<rect width="20.0458" height="20" fill="white" transform="matrix(0.999942 0.0107747 0.0108241 -0.999941 0.222656 19.998)"/>
</clipPath>
</defs>
</svg>
