<svg width="43" height="51" viewBox="0 0 43 51" fill="none" xmlns="http://www.w3.org/2000/svg">
<g filter="url(#filter0_d_314_130)">
<path d="M36.0741 32.5514L29.1521 30.1848L28.3728 28.7092C28.1721 28.3321 27.8353 28.0558 27.4229 27.9306C27.3221 27.9004 27.2205 27.8802 27.118 27.8693V25.8167C27.4573 25.5698 27.7832 25.3002 28.0923 25.0063C29.7224 23.4593 30.7479 21.4294 31.0191 19.234H31.2022C32.5745 19.234 33.6915 18.1162 33.6915 16.7431C33.6915 15.9049 33.2749 15.1625 32.6375 14.7115C32.6627 14.4864 32.677 14.2622 32.677 14.0413V10.0319C32.677 4.5099 28.1846 0.0175781 22.6627 0.0175781H20.3413C14.8194 0.0175781 10.3271 4.5099 10.3271 10.0319V14.0413C10.3271 14.2672 10.3413 14.4914 10.3657 14.7123C9.72908 15.1633 9.31252 15.9057 9.31252 16.7431C9.31252 18.1171 10.4287 19.234 11.8018 19.234H11.9824C12.3175 21.9509 13.7838 24.3033 15.8835 25.8243V27.8693C15.7802 27.8802 15.6777 27.9004 15.5769 27.9315C15.1646 28.0574 14.8286 28.3346 14.6304 28.7108L13.8527 30.1839L6.92988 32.5523C5.15949 33.1578 4.01562 34.7577 4.01562 36.6289V40.876C4.01562 42.04 4.96213 42.9865 6.12615 42.9865H36.877C38.0411 42.9865 38.9876 42.04 38.9876 40.876V36.6289C38.9876 34.7569 37.8445 33.157 36.0741 32.5514ZM31.4928 38.1406C31.9329 38.1406 32.2915 38.4992 32.2915 38.9393C32.2915 39.3785 31.9329 39.7355 31.4928 39.7355C31.0536 39.7355 30.6966 39.3785 30.6966 38.9393C30.6958 38.4984 31.0536 38.1406 31.4928 38.1406ZM17.8159 35.0685C17.9234 35.0189 18.0259 34.9576 18.1191 34.8829L18.8086 34.3353L19.0236 35.1583C19.095 35.4313 19.2227 35.6824 19.3948 35.8932L19.1337 37.184L17.8159 35.0685ZM20.17 38.8469L20.7865 35.8016C20.8385 35.5438 20.7352 35.2784 20.5219 35.1239C20.4287 35.0559 20.359 34.9484 20.3254 34.8199L19.9601 33.4224L21.5012 32.1996L22.9701 33.3644L22.6702 34.8543C22.6476 34.9668 22.5879 35.0584 22.4997 35.118C22.2747 35.27 22.1638 35.543 22.2176 35.8084L22.8189 38.7722L21.4617 40.9205L20.2884 39.0367L20.17 38.8469ZM23.8569 37.1261L23.61 35.9108C23.7965 35.6883 23.9266 35.4195 23.9879 35.1222L24.1526 34.3025L24.8841 34.8829C24.9706 34.9509 25.0638 35.008 25.1612 35.055L23.8569 37.1261ZM27.1836 29.3374L27.9025 30.6996L25.9062 33.8062C25.8885 33.8339 25.8616 33.8507 25.8264 33.8566C25.8045 33.8599 25.7609 33.8616 25.7205 33.8288L24.1442 32.5783C24.1391 32.5741 24.1341 32.5699 24.1282 32.5657L22.7181 31.447L26.7544 29.2702C26.762 29.266 26.7687 29.2626 26.7762 29.2584L26.8123 29.2391C26.8457 29.2206 26.8825 29.2091 26.9205 29.2052C26.9584 29.2013 26.9968 29.2051 27.0332 29.2164C27.0803 29.2307 27.1449 29.2643 27.1836 29.3374ZM11.6725 14.0396V10.0302C11.6725 5.2498 15.5618 1.36133 20.3413 1.36133H22.6627C27.4431 1.36133 31.3315 5.25064 31.3315 10.0302V14.0396C31.3315 14.111 31.3299 14.1832 31.3265 14.2554C31.2854 14.2538 31.2442 14.2521 31.2022 14.2521H30.4615C30.1322 14.2521 29.8652 13.9842 29.8652 13.6558V10.9994C29.8652 10.3804 29.4872 9.84963 28.9002 9.64639C27.9428 9.32053 26.5654 8.44457 25.7625 7.65176C25.4778 7.37125 25.0865 7.22092 24.6901 7.24023C24.2945 7.25955 23.9208 7.44432 23.6671 7.7475C20.5731 11.426 16.9139 10.9347 15.0075 10.3141C14.5725 10.173 14.0929 10.2477 13.7251 10.5156C13.3513 10.7869 13.1372 11.2085 13.1372 11.6721V13.6146C13.0935 13.9271 12.8936 14.2512 12.5434 14.2512H11.8027C11.7607 14.2512 11.7195 14.2521 11.6784 14.2546C11.6742 14.1841 11.6725 14.1118 11.6725 14.0396ZM13.2682 18.5219C13.2585 18.3505 13.1835 18.1893 13.0588 18.0714C12.934 17.9535 12.7688 17.8878 12.5971 17.8878H11.8018C11.1711 17.8878 10.6579 17.3738 10.6579 16.7414C10.6579 16.2736 10.941 15.8705 11.3441 15.6933L11.3743 15.6807C11.5062 15.6269 11.6506 15.5975 11.8018 15.5975H12.5426C13.5487 15.5975 14.3625 14.8106 14.4776 13.7272C14.4801 13.7037 14.4809 13.6802 14.4809 13.6558V11.6729C14.4809 11.662 14.4809 11.6284 14.5145 11.6041C14.5481 11.5797 14.58 11.5898 14.5909 11.5931C16.819 12.3188 21.0947 12.8957 24.6968 8.61254C24.7119 8.59406 24.7312 8.58482 24.7539 8.58398C24.7774 8.5823 24.8001 8.59154 24.8177 8.60918C25.7575 9.53805 27.3263 10.5316 28.4626 10.9187C28.5013 10.9322 28.5197 10.9582 28.5197 10.9994V13.6558C28.5197 14.7266 29.3907 15.5975 30.4615 15.5975H31.2022C31.3534 15.5975 31.4978 15.6278 31.6305 15.6815L31.6608 15.6941C32.0639 15.8713 32.3461 16.2736 32.3461 16.7414C32.3461 17.3738 31.8329 17.8878 31.2022 17.8878H30.4044C30.0474 17.8878 29.7526 18.1666 29.7325 18.5227C29.583 21.1648 28.1964 23.4601 26.1547 24.8585C26.0968 24.8862 26.0439 24.9215 25.9969 24.9635C24.7001 25.8083 23.1548 26.2988 21.5003 26.2988C19.9051 26.3003 18.344 25.8369 17.008 24.9651C16.9593 24.9206 16.903 24.8828 16.8426 24.8543C14.8043 23.4551 13.4194 21.1623 13.2682 18.5219ZM21.5012 27.6442C23.0011 27.6442 24.4583 27.294 25.7735 26.6347V28.2716L21.5012 30.5753L17.2289 28.2699V26.6389C18.518 27.2831 19.9693 27.6442 21.5012 27.6442ZM15.8205 29.3365C15.8591 29.2635 15.9229 29.2307 15.9691 29.2164C16.012 29.203 16.0985 29.1887 16.1908 29.2391L16.206 29.2475C16.2261 29.2601 16.2471 29.271 16.2681 29.2811L20.2826 31.447L17.2818 33.8288C17.2406 33.8616 17.197 33.8599 17.1743 33.8566C17.1399 33.8507 17.1147 33.8347 17.097 33.807L15.0999 30.6996L15.8205 29.3365ZM5.36105 40.8743V36.6272C5.36105 35.3406 6.14799 34.2395 7.36576 33.8238L10.0558 32.9033V35.7269C9.05049 36.0192 8.31311 36.948 8.31311 38.0457V40.2713C8.31311 40.6425 8.61377 40.944 8.98582 40.944C9.35787 40.944 9.65854 40.6433 9.65854 40.2713V38.0457C9.65854 37.4553 10.1389 36.9757 10.7285 36.9757C11.3181 36.9757 11.7985 37.4561 11.7985 38.0457V40.2713C11.7985 40.6425 12.0991 40.944 12.4712 40.944C12.8432 40.944 13.1439 40.6433 13.1439 40.2713V38.0457C13.1439 36.9472 12.4065 36.0183 11.4012 35.7269V32.4431L14.035 31.542L19.1387 39.7355L20.3187 41.6394H6.12615C5.70455 41.6402 5.36105 41.2967 5.36105 40.8743ZM37.643 40.8743C37.643 41.2959 37.2995 41.6394 36.8779 41.6394H22.6022L28.9657 31.5411L30.8192 32.1752V36.9035C29.9668 37.1865 29.3504 37.9911 29.3504 38.9385C29.3504 40.1193 30.3111 41.0801 31.492 41.0801C32.6745 41.0801 33.6361 40.1193 33.6361 38.9385C33.6361 37.9911 33.0188 37.1865 32.1647 36.9035V32.6354L35.6383 33.823C36.856 34.2395 37.643 35.3406 37.643 36.6264V40.8743ZM19.3747 19.9798C20.9242 20.9851 22.2646 20.9927 23.5949 20.0042C23.893 19.7825 24.3146 19.8446 24.5355 20.1428C24.7572 20.4409 24.6951 20.8625 24.397 21.0834C23.4958 21.7536 22.5577 22.0887 21.5902 22.0887C20.6345 22.0887 19.6493 21.762 18.6423 21.1077C18.3308 20.9053 18.2417 20.4888 18.4441 20.1772C18.6465 19.8664 19.0631 19.7774 19.3747 19.9798ZM23.9997 13.2804C23.9997 12.9092 24.3004 12.6077 24.6724 12.6077H26.3412C26.7124 12.6077 27.0139 12.9083 27.0139 13.2804C27.0139 13.6524 26.7132 13.9531 26.3412 13.9531H24.6724C24.3004 13.9531 23.9997 13.6516 23.9997 13.2804ZM18.3324 13.9531H16.6637C16.2925 13.9531 15.991 13.6524 15.991 13.2804C15.991 12.9083 16.2916 12.6077 16.6637 12.6077H18.3324C18.7037 12.6077 19.0052 12.9083 19.0052 13.2804C19.0052 13.6524 18.7037 13.9531 18.3324 13.9531ZM18.1687 15.4631V16.3702C18.1687 16.7414 17.868 17.0429 17.496 17.0429C17.1239 17.0429 16.8232 16.7422 16.8232 16.3702V15.4631C16.8232 15.0919 17.1239 14.7904 17.496 14.7904C17.868 14.7904 18.1687 15.0919 18.1687 15.4631ZM26.1799 15.4631V16.3702C26.1799 16.7414 25.8793 17.0429 25.5072 17.0429C25.1352 17.0429 24.8345 16.7422 24.8345 16.3702V15.4631C24.8345 15.0919 25.1352 14.7904 25.5072 14.7904C25.8793 14.7904 26.1799 15.0919 26.1799 15.4631Z" fill="#00507C"/>
</g>
<defs>
<filter id="filter0_d_314_130" x="-4" y="0" width="51" height="51" filterUnits="userSpaceOnUse" color-interpolation-filters="sRGB">
<feFlood flood-opacity="0" result="BackgroundImageFix"/>
<feColorMatrix in="SourceAlpha" type="matrix" values="0 0 0 0 0 0 0 0 0 0 0 0 0 0 0 0 0 0 127 0" result="hardAlpha"/>
<feOffset dy="4"/>
<feGaussianBlur stdDeviation="2"/>
<feComposite in2="hardAlpha" operator="out"/>
<feColorMatrix type="matrix" values="0 0 0 0 0 0 0 0 0 0 0 0 0 0 0 0 0 0 0.25 0"/>
<feBlend mode="normal" in2="BackgroundImageFix" result="effect1_dropShadow_314_130"/>
<feBlend mode="normal" in="SourceGraphic" in2="effect1_dropShadow_314_130" result="shape"/>
</filter>
</defs>
</svg>
