<svg width="48" height="48" viewBox="0 0 48 48" fill="none" xmlns="http://www.w3.org/2000/svg">
<path d="M40.9783 7.02947C36.4453 2.49638 30.4183 0 24.0078 0C17.5973 0 11.5703 2.49638 7.03728 7.02947C2.50419 11.5625 0.0078125 17.5895 0.0078125 24C0.0078125 30.4105 2.50419 36.4375 7.03728 40.9705C11.5703 45.5036 17.5973 48 24.0078 48C30.4183 48 36.4453 45.5036 40.9783 40.9705C45.5113 36.4374 48.0078 30.4105 48.0078 24C48.0078 17.5895 45.5114 11.5625 40.9783 7.02947ZM24.0078 46.4842C11.6099 46.4842 1.52356 36.3979 1.52356 24C1.52356 11.6021 11.6099 1.51575 24.0078 1.51575C36.4057 1.51575 46.4921 11.6021 46.4921 24C46.4921 36.3979 36.4057 46.4842 24.0078 46.4842Z" fill="#4781A0"/>
<path d="M40.9149 15.2248C40.6868 15.0276 40.3563 14.9939 40.0829 15.1208C39.6907 15.3026 39.29 15.4624 38.8823 15.5995C39.2866 15.0479 39.6096 14.435 39.8374 13.7778C39.9314 13.5068 39.8846 13.1988 39.6903 12.9878C39.4472 12.724 39.06 12.6685 38.7563 12.8415C37.6486 13.4727 36.454 13.9015 35.2003 14.1182C33.798 12.8311 31.9939 12.127 30.0775 12.127C26.1106 12.127 22.845 15.1871 22.5167 19.0705C21.6973 18.9427 20.0939 18.4855 19.7105 18.3601C16.9373 17.4156 14.4391 15.7525 12.4847 13.5501C12.3689 13.4195 12.2162 13.3224 12.0446 13.291C11.6996 13.228 11.3723 13.4021 11.2247 13.6977C10.739 14.6711 10.4926 15.7179 10.4926 16.8088C10.4926 18.3175 10.965 19.7395 11.8157 20.9085C11.5506 20.8587 11.2684 20.9518 11.0834 21.1795C10.977 21.3103 10.9237 21.4765 10.9174 21.645C10.9146 21.7219 10.9121 21.799 10.9121 21.8768C10.9121 23.9221 11.8486 25.7811 13.3623 26.9944C13.2578 27.0652 13.1697 27.1629 13.1089 27.2833C13.0186 27.4618 13.0086 27.6717 13.0682 27.8625C13.7294 29.9774 15.3719 31.588 17.4081 32.2482C15.5638 33.371 13.4304 33.9764 11.2507 33.9764C11.0582 33.9764 10.8601 33.9715 10.662 33.9618C10.2827 33.9445 9.94251 34.2092 9.87726 34.594C9.82401 34.908 9.9862 35.222 10.2604 35.3837C13.0465 37.027 16.2355 37.8955 19.4845 37.8955C23.3621 37.8955 27.0555 36.6879 30.1351 34.4525C30.515 34.1767 30.5569 33.6255 30.225 33.2935L30.2248 33.2933C29.9574 33.0259 29.5368 32.9971 29.2305 33.2189C26.486 35.2062 23.1174 36.3796 19.4844 36.3796C17.4482 36.3796 15.438 36.0076 13.5542 35.2912C15.8326 34.891 17.9863 33.9029 19.7801 32.4119C19.9968 32.2317 20.1109 31.9467 20.0564 31.6703C19.9866 31.3171 19.684 31.0675 19.3338 31.0576C17.4883 31.0053 15.8407 29.9856 14.9559 28.427C15.3779 28.4067 15.8002 28.349 16.2159 28.2544C16.533 28.1822 16.7895 27.9289 16.8308 27.6063C16.8804 27.218 16.6307 26.8633 16.2603 26.7722C14.2806 26.2847 12.8247 24.6756 12.4972 22.717C13.0775 22.853 13.6807 22.9131 14.2829 22.8947C14.6544 22.8835 14.9688 22.6032 15.0134 22.2229C15.0484 21.9233 14.8893 21.6331 14.6318 21.4761C12.9885 20.4746 12.0082 18.7318 12.0082 16.8089C12.0082 16.3389 12.0666 15.8792 12.1825 15.4341C14.1693 17.3985 16.5807 18.8955 19.2218 19.7951C19.246 19.8034 21.8555 20.6158 22.8439 20.6199C22.9084 20.6215 23.2166 20.635 23.217 20.635C23.5347 20.6479 23.8426 20.4551 23.9626 20.1357C23.9971 20.044 24.0097 19.9454 24.0074 19.8475C24.0063 19.8034 24.0052 19.7592 24.0052 19.7148C24.0052 16.3667 26.7291 13.6428 30.0773 13.6428C31.7167 13.6428 33.2534 14.287 34.4046 15.4567C34.5712 15.6261 34.806 15.7095 35.0415 15.6769C35.8127 15.5699 36.5655 15.3933 37.2949 15.1489C36.9066 15.5749 36.4488 15.9399 35.9354 16.2274C35.5892 16.4212 35.4424 16.8422 35.6055 17.2038L35.6167 17.2285C35.7502 17.524 36.0565 17.7015 36.3795 17.671C37.0064 17.6112 37.6246 17.508 38.2313 17.3625C37.6946 17.916 37.1044 18.4188 36.4642 18.8673C36.2553 19.0136 36.1352 19.2561 36.144 19.5109L36.1455 19.5588C36.1473 19.6106 36.1493 19.6626 36.1493 19.7148V19.7833C36.1319 24.0293 34.5123 27.9071 31.8679 30.8453C31.5977 31.1454 31.6146 31.6062 31.9002 31.8918C32.2107 32.2023 32.7177 32.1872 33.0116 31.8607C35.9826 28.5599 37.6263 24.3438 37.6647 19.8699C39.0167 18.8627 40.158 17.6315 41.061 16.2049C41.2596 15.8913 41.2038 15.4748 40.9149 15.2248Z" fill="#4781A0"/>
</svg>
