<svg width="48" height="48" viewBox="0 0 48 48" fill="none" xmlns="http://www.w3.org/2000/svg">
<g clip-path="url(#clip0_506_210)">
<path d="M21.8225 18.5453V20.7272H19.6406V23.9999H21.8225V33.818H26.1861V23.9999H29.0879L29.4588 20.7272H26.1861V18.818C26.1861 17.9345 26.2733 17.4653 27.6369 17.4653H29.4588V14.1816H26.5352C23.0443 14.1817 21.8225 15.818 21.8225 18.5453Z" fill="#4781A0"/>
<path d="M24.0078 0C10.753 0 0.0078125 10.7452 0.0078125 24C0.0078125 37.2548 10.753 48 24.0078 48C37.2627 48 48.0078 37.2548 48.0078 24C48.0078 10.7452 37.2627 0 24.0078 0ZM24.0078 45.8182C11.9579 45.8182 2.18966 36.0499 2.18966 24C2.18966 11.9501 11.9579 2.18184 24.0078 2.18184C36.0577 2.18184 45.826 11.9501 45.826 24C45.826 36.0499 36.0577 45.8182 24.0078 45.8182Z" fill="#4781A0"/>
</g>
<defs>
<clipPath id="clip0_506_210">
<rect width="48" height="48" fill="white" transform="translate(0.0078125)"/>
</clipPath>
</defs>
</svg>
