<svg width="48" height="48" viewBox="0 0 48 48" fill="none" xmlns="http://www.w3.org/2000/svg">
<path d="M24.0078 0C10.8173 0 0.0078125 10.9032 0.0078125 24.0938C0.0078125 37.2078 10.7188 48 24.0078 48C37.2804 48 48.0078 37.2239 48.0078 24.0938C48.0078 10.9032 37.1984 0 24.0078 0ZM28.2266 44.7656C26.8767 45.0469 25.4423 45.1875 24.0078 45.1875C22.5734 45.1875 21.1389 45.0469 19.7891 44.7656V38.1844C19.7891 36.6094 20.2109 36.0469 20.7734 35.2874C21.0598 34.96 21.2327 34.6663 22.517 32.7283L20.3516 32.3906C14.7826 31.5751 12.589 28.678 11.717 26.428C10.592 23.4188 11.1827 19.6498 13.2079 17.2595C13.5173 16.8937 13.7704 16.2748 13.5455 15.6281C13.1233 14.3342 13.1797 12.2812 13.4609 11.4935C14.9521 11.7067 16.4855 12.7749 17.7643 13.5469C18.3535 13.8907 18.6626 13.7999 18.9453 13.8281C19.9729 13.6143 21.5758 13.0968 24.036 13.0968C25.5547 13.0968 27.158 13.3217 28.733 13.7717C29.0146 13.7651 29.4673 14.0046 30.2517 13.5469C31.5884 12.7324 33.0697 11.7008 34.5547 11.4935C34.8359 12.2812 34.8923 14.3342 34.4705 15.6281C34.2452 16.2748 34.4983 16.8937 34.8081 17.2595C36.8329 19.6501 37.4236 23.4188 36.2986 26.428C35.4266 28.678 33.233 31.5751 27.6641 32.3906L25.4987 32.7283C26.8262 34.7314 26.9661 34.9717 27.2426 35.2874C27.8047 36.0469 28.2266 36.6094 28.2266 38.1844V44.7656ZM31.0391 43.9501V38.1844C31.0391 36.5812 30.7014 35.5126 30.2513 34.7249C34.5265 33.572 37.5642 31.0404 38.9141 27.4124C40.3485 23.5876 39.7018 19.0312 37.3108 15.8811C37.733 13.9969 37.733 10.9874 36.7205 9.58118C36.2704 8.96265 35.6515 8.625 34.8641 8.625C34.8359 8.625 34.8359 8.625 34.8359 8.625C32.6552 8.74292 30.9387 9.84119 29.0985 10.9592C27.411 10.5092 25.6953 10.2843 23.9796 10.2843C22.2361 10.2843 20.4922 10.5374 18.9457 10.9592C17.0084 9.79102 15.3085 8.73999 13.0673 8.625C12.3641 8.625 11.7452 8.96265 11.2952 9.58118C10.283 10.9874 10.283 13.9969 10.7048 15.8811C8.31384 19.0312 7.66711 23.6155 9.10156 27.4124C10.4514 31.0404 13.4891 33.572 17.7643 34.7249C17.4153 35.3353 17.1392 36.123 17.0304 37.1891C16.1669 37.4868 15.418 37.5839 14.7214 37.3792C13.9868 37.162 13.4144 36.6716 12.9171 35.8352C11.8002 33.9587 9.89771 32.4269 7.73157 32.6261L7.97876 35.4276C8.98181 35.3357 9.9801 36.397 10.4987 37.2719C11.3541 38.7125 12.5066 39.6573 13.9249 40.0763C14.9778 40.3865 15.9402 40.3792 16.9766 40.158V43.9501C8.79211 41.0812 2.82031 33.2626 2.82031 24.0938C2.82031 12.4501 12.3641 2.8125 24.0078 2.8125C35.6515 2.8125 45.1953 12.4501 45.1953 24.0938C45.1953 33.2626 39.2235 41.0812 31.0391 43.9501Z" fill="#4781A0"/>
</svg>
