<svg width="48" height="48" viewBox="0 0 48 48" fill="none" xmlns="http://www.w3.org/2000/svg">
<path d="M35.6566 28.4351L31.9741 25.6179C30.7139 24.6579 28.9385 24.7752 27.8154 25.8926L26.3763 27.3317C25.2773 27.0589 24.2551 26.5388 23.3876 25.811L23.262 25.7051C22.9124 25.4112 22.5889 25.0875 22.2954 24.7376L22.1932 24.6157C21.4647 23.7479 20.9443 22.7249 20.6717 21.6251L22.1098 20.187C23.2264 19.0651 23.3448 17.2915 22.3873 16.0311L19.5701 12.3523C18.6441 11.1379 17.0068 10.7159 15.6092 11.3314L15.191 11.5189C12.7306 12.6029 11.1196 15.0128 11.0585 17.7007C10.9673 22.153 12.4962 26.487 15.3607 29.8967L15.5482 30.1151C16.2604 30.9624 17.0447 31.7466 17.892 32.4588L18.1104 32.6463C21.4224 35.4254 25.6069 36.9497 29.9304 36.9523C30.0554 36.9523 30.1832 36.9523 30.3138 36.9523C33.0028 36.8892 35.4123 35.2751 36.4938 32.8123L36.6813 32.3942C37.2942 30.9962 36.8709 29.3602 35.6566 28.4351ZM34.4444 31.4182V31.4173L34.2569 31.8354C33.5559 33.4271 31.9972 34.4693 30.2585 34.5092C30.1469 34.5092 30.0354 34.5092 29.9248 34.5092C26.1761 34.5074 22.5476 33.1864 19.6751 30.7779L19.4567 30.5904C18.7168 29.9685 18.032 29.2837 17.4101 28.5439L17.2226 28.3245C14.7364 25.3652 13.4104 21.6034 13.4914 17.7392C13.5311 16.0002 14.5733 14.4412 16.1651 13.7398L16.5832 13.5523C16.9547 13.3913 17.388 13.5066 17.6304 13.8308L20.4476 17.5095C20.668 17.7983 20.6412 18.2055 20.3848 18.4629L18.4835 20.3651C18.2063 20.6422 18.0794 21.0357 18.1423 21.4226C18.4286 23.1779 19.1836 24.8234 20.3276 26.1851L20.4298 26.306C20.8134 26.7627 21.2359 27.1852 21.6926 27.5689L21.8182 27.6748C23.1796 28.8172 24.8239 29.5712 26.5779 29.8573C26.9651 29.9205 27.359 29.7935 27.6363 29.516L29.5385 27.6139C29.7961 27.3579 30.203 27.3311 30.4919 27.551L34.1744 30.3748C34.4935 30.6192 34.6048 31.0497 34.4444 31.4182Z" fill="#4781A0"/>
<path d="M40.9736 7.03132C36.4832 2.51557 30.3731 -0.016327 24.0049 7.92373e-05C11.843 -0.000483262 1.60315 9.09625 0.170843 21.1735C-0.421 26.241 0.607623 31.3658 3.10896 35.8125L1.08397 42.7847C0.570311 44.5544 1.58853 46.4054 3.35824 46.9191C3.96574 47.0954 4.61083 47.0954 5.21833 46.9191L12.1924 44.8959C15.8076 46.9311 19.8862 48.0002 24.0349 48C37.2897 47.9814 48.0197 37.2213 48.0012 23.9665C47.9923 17.6138 45.4651 11.5238 40.9736 7.03132ZM39.2514 39.2475C35.8388 42.6856 31.3579 44.86 26.5455 45.4134C21.8284 45.9658 17.0604 44.954 12.9743 42.5334C12.684 42.3604 12.335 42.3156 12.0105 42.4097L4.53865 44.58C4.06174 44.7182 3.56309 44.4436 3.4249 43.9667C3.37756 43.8033 3.37756 43.6297 3.4249 43.4662L5.59521 35.9935C5.68933 35.669 5.64452 35.3199 5.47146 35.0297C3.05093 30.9435 2.03909 26.1756 2.59146 21.4585C3.8793 10.6086 13.0789 2.43692 24.0049 2.43757C35.9135 2.43757 45.5673 12.0914 45.5674 23.9999C45.5674 29.719 43.2955 35.2037 39.2514 39.2475Z" fill="#4781A0"/>
</svg>
