<svg width="21" height="20" viewBox="0 0 21 20" fill="none" xmlns="http://www.w3.org/2000/svg">
<g clip-path="url(#clip0_1393_279)">
<path d="M11.7172 9.9707H16.981C17.6447 9.9707 18.1885 10.5132 18.1885 11.1754C18.1885 11.8386 17.6447 12.3801 16.981 12.3801C17.6447 12.3801 18.1885 12.9226 18.1885 13.5848C18.1885 14.248 17.6447 14.7895 16.981 14.7895C17.6447 14.7895 18.1885 15.332 18.1885 15.9941C18.1885 16.6574 17.6447 17.2 16.981 17.2H16.0621C16.7258 17.2 17.2696 17.7414 17.2696 18.4046C17.2696 19.0668 16.7258 19.6093 16.0621 19.6093H10.6008C9.33566 19.6093 7.09941 18.9804 6.125 18.1588" stroke="url(#paint0_linear_1393_279)" stroke-width="1.25" stroke-miterlimit="10" stroke-linecap="round" stroke-linejoin="round"/>
<path d="M6.125 11.1837C8.43559 9.71326 9.14256 7.96045 9.58647 5.16349C9.72632 4.27767 9.98711 3.43396 11.2534 4.06509C12.0846 4.4792 12.8049 5.87658 12.3965 7.41345L11.7173 9.97123M16.9811 12.3806H15.3352M16.9811 14.79H15.3352M16.0621 17.2005H15.3352" stroke="url(#paint1_linear_1393_279)" stroke-width="1.25" stroke-miterlimit="10" stroke-linecap="round" stroke-linejoin="round"/>
<path d="M6.12622 11.1831V18.1589M4.19963 12.214V12.2162M7.43691 2.24973L6.74106 1.6341M14.5307 2.24973L15.2266 1.6341M10.9838 1.31852V0.390625M5.23837 5.01344L6.16839 5.05219M16.7292 5.01344L15.7992 5.05219M5.43147 19.2938H2.7846C2.40282 19.2938 2.08984 18.9815 2.08984 18.6006V10.7413C2.08984 10.3604 2.40282 10.0482 2.7846 10.0482H5.43147C5.81324 10.0482 6.12622 10.3604 6.12622 10.7413V18.6007C6.12622 18.9816 5.81324 19.2938 5.43147 19.2938Z" stroke="url(#paint2_linear_1393_279)" stroke-width="1.25" stroke-miterlimit="10" stroke-linecap="round" stroke-linejoin="round"/>
</g>
<defs>
<linearGradient id="paint0_linear_1393_279" x1="12.1567" y1="9.9707" x2="12.1567" y2="19.6093" gradientUnits="userSpaceOnUse">
<stop stop-color="#F53D47" stop-opacity="0.77"/>
<stop offset="0.455" stop-color="#41C7D2" stop-opacity="0.72"/>
<stop offset="1" stop-color="#00507C" stop-opacity="0.92"/>
</linearGradient>
<linearGradient id="paint1_linear_1393_279" x1="11.553" y1="3.8457" x2="11.553" y2="17.2005" gradientUnits="userSpaceOnUse">
<stop stop-color="#F53D47" stop-opacity="0.77"/>
<stop offset="0.455" stop-color="#41C7D2" stop-opacity="0.72"/>
<stop offset="1" stop-color="#00507C" stop-opacity="0.92"/>
</linearGradient>
<linearGradient id="paint2_linear_1393_279" x1="9.40954" y1="0.390625" x2="9.40954" y2="19.2938" gradientUnits="userSpaceOnUse">
<stop stop-color="#F53D47" stop-opacity="0.77"/>
<stop offset="0.455" stop-color="#41C7D2" stop-opacity="0.72"/>
<stop offset="1" stop-color="#00507C" stop-opacity="0.92"/>
</linearGradient>
<clipPath id="clip0_1393_279">
<rect width="20.0458" height="20" fill="white" transform="translate(0.117188)"/>
</clipPath>
</defs>
</svg>
