<svg width="40" height="40" viewBox="0 0 40 40" fill="none" xmlns="http://www.w3.org/2000/svg">
<path d="M31.6667 18.334H8.33333C6.49238 18.334 5 19.8264 5 21.6673V33.334C5 35.1749 6.49238 36.6673 8.33333 36.6673H31.6667C33.5076 36.6673 35 35.1749 35 33.334V21.6673C35 19.8264 33.5076 18.334 31.6667 18.334Z" stroke="#00507C" stroke-width="2" stroke-linecap="round" stroke-linejoin="round"/>
<path d="M11.6641 18.334V11.6673C11.6641 9.45718 12.542 7.33756 14.1048 5.77476C15.6676 4.21196 17.7873 3.33398 19.9974 3.33398C22.2075 3.33398 24.3271 4.21196 25.89 5.77476C27.4528 7.33756 28.3307 9.45718 28.3307 11.6673V18.334" stroke="#00507C" stroke-width="2" stroke-linecap="round" stroke-linejoin="round"/>
</svg>
