<svg width="106" height="73" viewBox="0 0 106 73" fill="none" xmlns="http://www.w3.org/2000/svg">
<path d="M-31 33.1309V33.1309C-10.1801 20.986 15.5648 20.986 36.3847 33.1309V33.1309V33.1309C57.2046 45.2758 82.9495 45.2758 103.769 33.1309V33.1309" stroke="#FFC042" stroke-width="3" stroke-linecap="round" stroke-linejoin="round"/>
<path d="M-31 26.3924V26.3924C-10.1801 14.2475 15.5648 14.2475 36.3847 26.3924V26.3924V26.3924C57.2046 38.5373 82.9495 38.5373 103.769 26.3924V26.3924" stroke="#FFC042" stroke-width="3" stroke-linecap="round" stroke-linejoin="round"/>
<path d="M-31 19.6539V19.6539C-10.1801 7.50894 15.5648 7.50894 36.3847 19.6539V19.6539V19.6539C57.2046 31.7988 82.9495 31.7988 103.769 19.6539V19.6539" stroke="#FFC042" stroke-width="3" stroke-linecap="round" stroke-linejoin="round"/>
<path d="M-31 39.8694V39.8694C-10.1801 27.7245 15.5648 27.7245 36.3847 39.8694V39.8694V39.8694C57.2046 52.0144 82.9495 52.0144 103.769 39.8694V39.8694" stroke="#FFC042" stroke-width="3" stroke-linecap="round" stroke-linejoin="round"/>
<path d="M-31 46.6076V46.6076C-10.1801 34.4627 15.5648 34.4627 36.3847 46.6076V46.6076V46.6076C57.2046 58.7525 82.9495 58.7525 103.769 46.6076V46.6076" stroke="#FFC042" stroke-width="3" stroke-linecap="round" stroke-linejoin="round"/>
<path d="M-31 53.3462V53.3462C-10.1801 41.2013 15.5648 41.2013 36.3847 53.3462V53.3462V53.3462C57.2046 65.4912 82.9495 65.4912 103.769 53.3462V53.3462" stroke="#FFC042" stroke-width="3" stroke-linecap="round" stroke-linejoin="round"/>
</svg>
