<svg width="43" height="43" viewBox="0 0 43 43" fill="none" xmlns="http://www.w3.org/2000/svg">
<g clip-path="url(#clip0_314_136)">
<path d="M17.6695 20.7133C20.5151 20.7133 22.9789 19.6927 24.9925 17.679C27.0055 15.6657 28.0265 13.2023 28.0265 10.3563C28.0265 7.51134 27.0059 5.04758 24.9922 3.0336C22.9785 1.0206 20.5148 0 17.6695 0C14.8235 0 12.3601 1.0206 10.3468 3.03393C8.33344 5.04725 7.3125 7.51101 7.3125 10.3563C7.3125 13.2023 8.33344 15.666 10.3468 17.6793C12.3607 19.6923 14.8245 20.7133 17.6695 20.7133ZM12.1288 4.81564C13.6737 3.27079 15.4859 2.51985 17.6695 2.51985C19.8527 2.51985 21.6653 3.27079 23.2105 4.81564C24.7553 6.36082 25.5066 8.17337 25.5066 10.3563C25.5066 12.5399 24.7553 14.3521 23.2105 15.8973C21.6653 17.4425 19.8527 18.1934 17.6695 18.1934C15.4865 18.1934 13.6743 17.4421 12.1288 15.8973C10.5836 14.3524 9.83236 12.5399 9.83236 10.3563C9.83236 8.17337 10.5836 6.36082 12.1288 4.81564Z" fill="#00507C"/>
<path d="M35.7882 33.0657C35.7301 32.2278 35.6127 31.3138 35.4398 30.3486C35.2652 29.3763 35.0405 28.457 34.7715 27.6169C34.4933 26.7485 34.1157 25.8909 33.6482 25.0691C33.1637 24.2161 32.5941 23.4734 31.9551 22.8622C31.2868 22.2228 30.4686 21.7088 29.5225 21.3338C28.5796 20.9608 27.5347 20.7718 26.417 20.7718C25.9781 20.7718 25.5536 20.9519 24.7337 21.4857C24.2292 21.8147 23.639 22.1953 22.9802 22.6162C22.4169 22.9751 21.6539 23.3114 20.7113 23.6158C19.7918 23.9133 18.8581 24.0643 17.9362 24.0643C17.015 24.0643 16.0814 23.9133 15.1611 23.6158C14.2196 23.3117 13.4562 22.9754 12.8939 22.6165C12.2414 22.1995 11.6509 21.819 11.1388 21.4854C10.3196 20.9516 9.89507 20.7715 9.45612 20.7715C8.33807 20.7715 7.29352 20.9608 6.35099 21.3341C5.40551 21.7084 4.58699 22.2225 3.91807 22.8626C3.279 23.4741 2.70948 24.2165 2.22526 25.0691C1.75842 25.8909 1.38049 26.7481 1.10229 27.6172C0.833611 28.4574 0.608887 29.3763 0.434357 30.3486C0.261139 31.3125 0.14402 32.2268 0.0859528 33.0666C0.0288696 33.8878 0 34.7424 0 35.6059C0 37.8505 0.713539 39.6676 2.12061 41.0077C3.51028 42.3302 5.34875 43.0007 7.58517 43.0007H28.2899C30.5257 43.0007 32.3642 42.3302 33.7542 41.0077C35.1616 39.6686 35.8751 37.8508 35.8751 35.6055C35.8748 34.7391 35.8456 33.8845 35.7882 33.0657ZM32.0167 39.1821C31.0985 40.056 29.8794 40.4809 28.2896 40.4809H7.58517C5.99504 40.4809 4.77596 40.056 3.85803 39.1824C2.9575 38.3252 2.51986 37.155 2.51986 35.6059C2.51986 34.8001 2.54643 34.0046 2.59958 33.2408C2.65141 32.4915 2.75738 31.6684 2.91452 30.7938C3.06969 29.93 3.26719 29.1194 3.50208 28.3855C3.72746 27.6818 4.03486 26.985 4.41607 26.3138C4.77989 25.6741 5.1985 25.1252 5.66042 24.683C6.09248 24.2693 6.63706 23.9307 7.27876 23.6768C7.87222 23.4419 8.53918 23.3133 9.26321 23.294C9.35146 23.3409 9.50861 23.4304 9.76318 23.5964C10.2812 23.934 10.8783 24.3192 11.5383 24.7407C12.2824 25.2151 13.241 25.6436 14.3863 26.0133C15.5571 26.3919 16.7513 26.5841 17.9366 26.5841C19.1219 26.5841 20.3163 26.3919 21.4865 26.0136C22.6328 25.6432 23.5911 25.2151 24.3361 24.7401C25.0116 24.3083 25.5919 23.9343 26.11 23.5964C26.3645 23.4308 26.5217 23.3409 26.6099 23.294C27.3343 23.3133 28.0012 23.4419 28.595 23.6768C29.2364 23.9307 29.781 24.2696 30.2131 24.683C30.675 25.1249 31.0936 25.6737 31.4574 26.3141C31.8389 26.985 32.1467 27.6821 32.3717 28.3852C32.6069 29.12 32.8048 29.9304 32.9596 30.7935C33.1164 31.6697 33.2227 32.4932 33.2745 33.2412V33.2418C33.328 34.0026 33.3549 34.7978 33.3552 35.6059C33.3549 37.1553 32.9173 38.3252 32.0167 39.1821Z" fill="#00507C"/>
</g>
<defs>
<clipPath id="clip0_314_136">
<rect width="43" height="43" fill="white"/>
</clipPath>
</defs>
</svg>
