<svg width="56" height="56" viewBox="0 0 56 56" fill="none" xmlns="http://www.w3.org/2000/svg">
<path d="M33.7891 9.70185C32.4804 8.39329 30.984 7.31573 29.3415 6.49913C28.9263 6.29274 28.4226 6.46195 28.2162 6.87714C28.0098 7.29232 28.179 7.7961 28.5942 8.00249C30.0737 8.73793 31.4221 9.70907 32.6018 10.889C38.5671 16.8543 38.5671 26.5607 32.6018 32.526C29.7121 35.4158 25.87 37.0072 21.7834 37.0072C17.6966 37.0072 13.8546 35.4158 10.9649 32.526C8.07511 29.6363 6.4837 25.7942 6.4837 21.7075C6.4837 17.6208 8.07511 13.7787 10.9649 10.889C12.7082 9.14568 14.7741 7.88339 17.1049 7.13712C19.3295 6.42498 21.73 6.23062 24.0465 6.57504C24.5056 6.6434 24.9323 6.32676 25.0003 5.86815C25.0684 5.40954 24.7521 4.98254 24.2935 4.9144C21.7239 4.53235 19.0611 4.74793 16.5929 5.53817C14.0414 6.35498 11.6846 7.79479 9.77753 9.70185C6.57077 12.9086 4.80469 17.1723 4.80469 21.7075C4.80469 26.2427 6.57077 30.5064 9.77753 33.7132C12.9844 36.92 17.2481 38.6861 21.7833 38.6861C26.3183 38.6861 30.5821 36.92 33.789 33.7132C40.409 27.0931 40.409 16.3218 33.7891 9.70185Z" fill="white"/>
<path d="M54.6628 48.2687L39.9741 33.5802C42.5837 29.5625 43.7962 24.7451 43.3952 19.9349C42.9696 14.8286 40.7375 10.0177 37.1102 6.38816C32.9941 2.26964 27.5361 0.000875 21.7415 0H21.7381C15.9449 0 10.487 2.26713 6.37069 6.38345C-2.1028 14.8571 -2.10269 28.6445 6.3708 37.118C10.0002 40.7474 14.8117 42.9811 19.9192 43.4075C24.7313 43.8092 29.549 42.5972 33.5676 39.9867L48.2562 54.6753C49.1394 55.5585 50.2993 56 51.4594 56C52.6196 56 53.7796 55.5585 54.6628 54.6753C56.429 52.909 56.429 50.035 54.6628 48.2687ZM53.4757 53.4881C52.3638 54.5999 50.5549 54.5998 49.4432 53.4881L34.266 38.3108C34.1036 38.1484 33.8886 38.0649 33.6722 38.0649C33.5053 38.0649 33.3374 38.1146 33.1923 38.2158C29.3813 40.8738 24.7182 42.1233 20.059 41.7345C15.3467 41.341 10.9071 39.28 7.55818 35.9309C-0.26093 28.112 -0.26104 15.3896 7.55796 7.57061C11.3574 3.77114 16.3931 1.67891 21.7381 1.67891H21.7413C27.0873 1.67967 32.1238 3.77366 35.9228 7.57498C39.2699 10.924 41.3296 15.3631 41.7222 20.0745C42.1097 24.723 40.8651 29.3775 38.2177 33.1837C37.648 33.8884 36.074 35.7738 35.3018 36.4433C34.9515 36.747 34.9137 37.2772 35.2175 37.6274C35.3835 37.8189 35.6172 37.9169 35.8521 37.9169C36.047 37.9169 36.2429 37.8494 36.4017 37.7117C37.1128 37.0951 38.2572 35.7647 38.9522 34.9325L53.4757 49.4559C54.5872 50.5675 54.5872 52.3764 53.4757 53.4881Z" fill="white"/>
</svg>
