<svg width="32" height="32" viewBox="0 0 32 32" fill="none" xmlns="http://www.w3.org/2000/svg">
<g clip-path="url(#clip0_1444_548)">
<path d="M30.0943 13.1468L4.2759 2.43378C3.18821 1.98241 1.95946 2.18097 1.06909 2.95172C0.178714 3.72259 -0.193661 4.91028 0.0973389 6.05141L2.63446 16.0009L0.0973389 25.9504C-0.193661 27.0915 0.178651 28.2792 1.06903 29.0501C1.96109 29.8225 3.19015 30.0185 4.2759 29.568L30.0943 18.855C31.2698 18.3672 32 17.2736 32 16.0009C32 14.7282 31.2698 13.6346 30.0943 13.1468ZM29.3756 17.1231L3.55728 27.8362C3.12309 28.0162 2.65178 27.9402 2.29634 27.6325C1.94096 27.3248 1.79815 26.8692 1.91428 26.4137L4.33046 16.9384H13.647C14.1648 16.9384 14.5846 16.5187 14.5846 16.0008C14.5846 15.483 14.1648 15.0633 13.647 15.0633H4.33053L1.91428 5.58816C1.79815 5.13266 1.94096 4.67703 2.29634 4.36934C2.65171 4.06166 3.1229 3.98553 3.55721 4.16566L29.3756 14.8787C30.0709 15.1672 30.125 15.8106 30.125 16.0009C30.125 16.1912 30.0709 16.8346 29.3756 17.1231Z" fill="#00507C"/>
</g>
<defs>
<clipPath id="clip0_1444_548">
<rect width="32" height="32" fill="white"/>
</clipPath>
</defs>
</svg>
