<svg width="1920" height="1023" viewBox="0 0 1920 1023" fill="none" xmlns="http://www.w3.org/2000/svg">
<path d="M-74 0H1924V1023H-74V0Z" fill="url(#paint0_linear_894_22)"/>
<path d="M1840.17 611.163L1745.99 555.496L1746.58 444.463L1840.75 389.395L1934.05 444.463V556.694L1840.17 611.163Z" stroke="#41C7D2" stroke-opacity="0.34" stroke-width="8"/>
<path d="M993.168 780.557L898.992 724.891L899.577 613.857L993.753 558.789L1087.05 613.857V726.088L993.168 780.557Z" stroke="#41C7D2" stroke-opacity="0.34" stroke-width="8"/>
<path d="M1182.68 444.163L1088.51 388.496L1089.09 277.463L1183.27 222.395L1276.57 277.463V389.694L1182.68 444.163Z" stroke="#41C7D2" stroke-opacity="0.34" stroke-width="8"/>
<path d="M1652.99 274.768L1558.81 219.102L1559.4 108.068L1653.57 53L1746.87 108.068V220.299L1652.99 274.768Z" stroke="#41C7D2" stroke-opacity="0.34" stroke-width="8"/>
<path d="M1368.9 443.743L1274.73 388.076L1275.31 277.043L1369.49 221.975L1462.78 277.043V389.274L1368.9 443.743Z" stroke="#41C7D2" stroke-opacity="0.34" stroke-width="8"/>
<path d="M993.168 443.743L898.992 388.076L899.577 277.043L993.753 221.975L1087.05 277.043V389.274L993.168 443.743Z" stroke="#41C7D2" stroke-opacity="0.34" stroke-width="8"/>
<path d="M1556.75 780.474L1462.58 724.807L1463.16 613.773L1557.34 558.705L1650.64 613.773V726.004L1556.75 780.474Z" stroke="#41C7D2" stroke-opacity="0.34" stroke-width="8"/>
<path d="M1747.03 780.474L1652.85 724.807L1653.44 613.773L1747.61 558.705L1840.91 613.773V726.004L1747.03 780.474Z" stroke="#41C7D2" stroke-opacity="0.34" stroke-width="8"/>
<path d="M1464.63 274.768L1370.45 219.102L1371.04 108.068L1465.21 53L1558.51 108.068V220.299L1464.63 274.768Z" stroke="#41C7D2" stroke-opacity="0.34" stroke-width="8"/>
<path d="M1085.3 274.768L991.125 219.102L991.71 108.068L1085.89 53L1179.18 108.068V220.299L1085.3 274.768Z" stroke="#41C7D2" stroke-opacity="0.34" stroke-width="8"/>
<path d="M1276.75 274.768L1182.58 219.102L1183.16 108.068L1277.34 53L1370.64 108.068V220.299L1276.75 274.768Z" stroke="#41C7D2" stroke-opacity="0.34" stroke-width="8"/>
<path d="M1843.95 274.768L1749.77 219.102L1750.36 108.068L1844.53 53L1937.83 108.068V220.299L1843.95 274.768Z" stroke="#41C7D2" stroke-opacity="0.34" stroke-width="8"/>
<path d="M1843.95 947.001L1749.77 891.334L1750.36 780.3L1844.53 725.232L1937.83 780.3V892.531L1843.95 947.001Z" stroke="#41C7D2" stroke-opacity="0.34" stroke-width="8"/>
<path d="M1650.1 947.001L1555.92 891.334L1556.51 780.3L1650.68 725.232L1743.98 780.3V892.531L1650.1 947.001Z" stroke="#41C7D2" stroke-opacity="0.34" stroke-width="8"/>
<path d="M1274.36 947.001L1180.19 891.334L1180.77 780.3L1274.95 725.232L1368.25 780.3V892.531L1274.36 947.001Z" stroke="#41C7D2" stroke-opacity="0.34" stroke-width="8"/>
<path d="M895.594 938.901L988.936 892.531V780.3L895.638 725.232" stroke="#41C7D2" stroke-opacity="0.34" stroke-width="8"/>
<path d="M1746.58 444.163L1652.41 388.496L1652.99 277.463L1747.17 222.395L1840.46 277.463V389.694L1746.58 444.163Z" stroke="#41C7D2" stroke-opacity="0.34" stroke-width="8"/>
<path d="M1558.82 444.163L1464.65 388.496L1465.23 277.463L1559.41 222.395L1652.71 277.463V389.694L1558.82 444.163Z" stroke="#41C7D2" stroke-opacity="0.34" stroke-width="8"/>
<path d="M1181.53 780.558L1087.35 724.891L1087.94 613.857L1182.11 558.789L1275.41 613.857V726.088L1181.53 780.558Z" stroke="#41C7D2" stroke-opacity="0.34" stroke-width="8"/>
<path d="M1652.41 611.163L1558.23 555.496L1558.82 444.463L1652.99 389.395L1746.29 444.463V556.694L1652.41 611.163Z" stroke="#41C7D2" stroke-opacity="0.34" stroke-width="8"/>
<path d="M1275.71 611.163L1181.53 555.496L1182.12 444.463L1276.29 389.395L1369.59 444.463V556.694L1275.71 611.163Z" stroke="#41C7D2" stroke-opacity="0.34" stroke-width="8"/>
<path d="M1464.04 611.163L1369.87 555.496L1370.45 444.463L1464.63 389.395L1557.93 444.463V556.694L1464.04 611.163Z" stroke="#41C7D2" stroke-opacity="0.34" stroke-width="8"/>
<path d="M1087.34 611.163L993.164 555.496L993.749 444.463L1087.92 389.395L1181.22 444.463V556.694L1087.34 611.163Z" stroke="#41C7D2" stroke-opacity="0.34" stroke-width="8"/>
<path d="M1138.85 797.262C1137.53 798.589 1136.03 799.685 1134.45 800.619L1117.07 783.23C1118 781.654 1119.09 780.161 1120.42 778.832C1121.29 777.967 1121.29 776.57 1120.42 775.705C1119.56 774.84 1118.16 774.84 1117.3 775.705C1108.28 784.719 1107.76 799.115 1107.96 804.988C1101.35 804.71 1083.81 805.103 1072.96 815.955C1072.96 815.955 1072.96 815.957 1072.95 815.957C1072.95 815.957 1072.95 815.959 1072.95 815.961C1062.11 826.81 1061.71 844.349 1061.98 850.959C1056.11 850.757 1041.72 851.284 1032.7 860.297C1031.84 861.162 1031.84 862.56 1032.7 863.424C1033.57 864.289 1034.97 864.289 1035.83 863.424C1037.16 862.097 1038.65 861.001 1040.23 860.07L1057.61 877.458C1056.68 879.034 1055.59 880.527 1054.26 881.854C1053.4 882.719 1053.4 884.116 1054.26 884.981C1054.69 885.412 1055.26 885.627 1055.82 885.627C1056.39 885.627 1056.96 885.41 1057.39 884.979C1066.4 875.967 1066.92 861.571 1066.72 855.695C1067.47 855.726 1068.35 855.751 1069.36 855.751C1077.21 855.751 1092.1 854.349 1101.73 844.727C1112.58 833.876 1112.98 816.335 1112.7 809.725C1113.24 809.743 1113.84 809.756 1114.51 809.756C1121.17 809.756 1133.8 808.566 1141.98 800.386C1142.85 799.522 1142.85 798.124 1141.98 797.26C1141.12 796.395 1139.72 796.397 1138.85 797.262ZM1108.25 809.438C1108.4 812.695 1108.4 819.831 1106.42 827.146L1090.53 811.264C1097.85 809.285 1104.99 809.287 1108.25 809.438ZM1100.08 839.955L1077.73 817.602C1080.18 815.55 1082.97 814.004 1085.85 812.837L1104.85 831.83C1103.68 834.716 1102.14 837.5 1100.08 839.955ZM1088.83 847.845L1069.84 828.849C1071 825.966 1072.55 823.181 1074.6 820.729L1096.96 843.082C1094.5 845.134 1091.72 846.677 1088.83 847.845ZM1044.45 858.028C1051.38 855.366 1058.89 855.28 1062.28 855.401C1062.41 858.791 1062.32 866.301 1059.66 873.241L1044.45 858.028ZM1066.44 851.246C1066.29 847.989 1066.29 840.85 1068.27 833.533L1084.15 849.415C1076.83 851.396 1069.7 851.39 1066.44 851.246ZM1112.4 805.28C1112.27 801.892 1112.36 794.385 1115.03 787.445L1130.24 802.66C1123.31 805.324 1115.8 805.415 1112.4 805.28Z" fill="#F53D47" fill-opacity="0.5"/>
<g clip-path="url(#clip0_894_22)">
<path d="M1457.77 123.33C1460.59 123.343 1462.89 121.065 1462.91 118.241C1462.92 115.418 1460.64 113.119 1457.82 113.107C1454.99 113.094 1452.7 115.372 1452.68 118.195C1452.67 121.018 1454.95 123.317 1457.77 123.33Z" fill="#00507C" fill-opacity="0.5"/>
<path d="M1484.85 123.453C1487.67 123.466 1489.97 121.188 1489.98 118.364C1490 115.541 1487.72 113.242 1484.9 113.23C1482.07 113.217 1479.77 115.495 1479.76 118.318C1479.75 121.141 1482.03 123.44 1484.85 123.453Z" fill="#00507C" fill-opacity="0.5"/>
<path d="M1500.09 123.059C1497.51 118.549 1492.87 115.843 1487.68 115.819L1487.66 120.889C1491.02 120.904 1494.02 122.655 1495.69 125.574C1497.36 128.493 1497.34 131.969 1495.65 134.873L1479.23 163.004C1477.54 165.908 1474.52 167.632 1471.16 167.617C1467.8 167.602 1464.8 165.851 1463.13 162.932L1446.97 134.652C1445.3 131.734 1445.32 128.258 1447.01 125.354C1448.71 122.451 1451.73 120.726 1455.09 120.741L1455.11 115.672C1449.92 115.648 1445.25 118.313 1442.63 122.8C1440.02 127.287 1439.99 132.657 1442.57 137.167L1458.73 165.446C1460.88 169.207 1464.46 171.707 1468.6 172.45L1468.54 186.052C1468.48 199.34 1460.59 210.115 1450.95 210.072C1441.31 210.028 1433.51 199.183 1433.57 185.895L1433.64 169.698C1439.42 168.547 1443.81 163.449 1443.83 157.331C1443.86 150.345 1438.21 144.637 1431.22 144.605C1424.24 144.574 1418.53 150.231 1418.5 157.216C1418.47 163.334 1422.8 168.472 1428.57 169.675L1428.5 185.872C1428.43 201.955 1438.49 215.085 1450.92 215.141C1463.36 215.198 1473.54 202.159 1473.61 186.075L1473.67 172.473C1477.82 171.767 1481.43 169.3 1483.61 165.558L1500.02 137.427C1502.64 132.94 1502.67 127.569 1500.09 123.059Z" fill="#00507C" fill-opacity="0.5"/>
</g>
<g clip-path="url(#clip1_894_22)">
<path d="M1891.35 822.46C1890.82 799.269 1862.47 782.261 1840.26 801.792C1817.96 782.407 1789.7 799.561 1789.3 822.766C1789.16 831.268 1792.78 839.443 1799.79 846.406C1799.81 846.426 1814.01 860.467 1838.4 884.579C1839.57 885.737 1841.46 885.731 1842.62 884.567L1881.01 846.163C1887.97 839.158 1891.55 830.961 1891.35 822.46ZM1840.49 878.234L1807.55 845.664L1818.06 845.632C1819.11 845.629 1820.08 845.075 1820.62 844.173L1822.9 840.34L1831.51 853.778C1832.78 855.754 1835.74 855.566 1836.74 853.436L1848.49 828.439L1856.9 843.943C1857.43 844.91 1858.44 845.511 1859.54 845.508L1873.24 845.467L1840.49 878.234ZM1879.01 839.468L1861.31 839.521L1850.93 820.388C1849.77 818.243 1846.64 818.319 1845.59 820.541L1833.63 845.99L1825.33 833.038C1824.12 831.149 1821.37 831.228 1820.24 833.12L1816.35 839.656L1801.74 839.699C1797.41 834.516 1795.18 828.753 1795.28 822.868C1795.6 804.218 1819.33 789.286 1838.17 808.008C1839.34 809.171 1841.23 809.166 1842.4 807.995C1866.31 783.947 1899.37 814.842 1879.01 839.468Z" fill="#F53D47" fill-opacity="0.45"/>
</g>
<g clip-path="url(#clip2_894_22)">
<path d="M1127.67 140.931L1127.67 140.834C1127.6 138.289 1127.54 135.887 1127.52 133.574C1127.5 130.072 1124.63 127.243 1121.12 127.268C1107.57 127.366 1097.26 123.577 1088.66 115.343C1086.16 112.946 1082.27 112.974 1079.81 115.407C1071.34 123.765 1061.08 127.704 1047.53 127.803C1044.02 127.828 1041.2 130.698 1041.22 134.201C1041.24 136.563 1041.21 138.99 1041.18 141.561C1041.04 153.561 1040.86 168.496 1045.97 182.015C1048.78 189.449 1053 195.896 1058.51 201.177C1064.79 207.192 1072.99 211.94 1082.88 215.289C1083.55 215.517 1084.25 215.63 1084.96 215.625C1085.67 215.62 1086.37 215.496 1087.04 215.259C1096.89 211.767 1105.02 206.9 1111.21 200.794C1116.64 195.433 1120.77 188.925 1123.47 181.451C1128.38 167.859 1127.99 152.928 1127.67 140.931ZM1117.84 179.419C1112.66 193.751 1101.93 203.631 1085.04 209.625C1084.96 209.652 1084.88 209.653 1084.8 209.626C1067.82 203.879 1056.95 194.156 1051.56 179.901C1046.85 167.438 1047.01 153.728 1047.16 141.632C1047.19 139.032 1047.22 136.577 1047.2 134.158C1047.2 133.952 1047.36 133.783 1047.57 133.782C1062.78 133.671 1074.36 129.185 1084.01 119.663C1084.08 119.592 1084.17 119.556 1084.27 119.555C1084.36 119.555 1084.45 119.59 1084.53 119.66C1094.32 129.04 1105.96 133.358 1121.17 133.247C1121.37 133.246 1121.54 133.412 1121.54 133.618C1121.56 135.987 1121.62 138.417 1121.69 140.99L1121.69 141.088C1122.01 153.181 1122.37 166.888 1117.84 179.419Z" fill="#143450" fill-opacity="0.5"/>
<path d="M1103.1 154.511L1093.48 154.581L1093.41 144.96C1093.4 143.309 1092.05 141.98 1090.4 141.992L1078.46 142.079C1076.81 142.091 1075.48 143.439 1075.5 145.09L1075.57 154.711L1065.94 154.781C1064.29 154.793 1062.96 156.141 1062.98 157.792L1063.06 169.725C1063.07 171.376 1064.42 172.705 1066.07 172.693L1075.7 172.623L1075.77 182.244C1075.78 183.895 1077.13 185.224 1078.78 185.212L1090.71 185.125C1092.36 185.113 1093.69 183.765 1093.68 182.113L1093.61 172.493L1103.23 172.423C1104.88 172.411 1106.21 171.062 1106.2 169.411L1106.11 157.479C1106.1 155.828 1104.75 154.499 1103.1 154.511ZM1100.19 166.465L1090.57 166.535C1088.92 166.547 1087.59 167.895 1087.61 169.546L1087.68 179.167L1081.72 179.21L1081.65 169.59C1081.64 167.938 1080.29 166.61 1078.64 166.622L1069.02 166.691L1068.98 160.739L1078.6 160.669C1080.25 160.657 1081.58 159.309 1081.57 157.657L1081.5 148.036L1087.45 147.993L1087.52 157.614C1087.53 159.265 1088.88 160.594 1090.53 160.582L1100.15 160.512L1100.19 166.465Z" fill="#143450" fill-opacity="0.5"/>
</g>
<defs>
<linearGradient id="paint0_linear_894_22" x1="925" y1="9.76664e-09" x2="924.832" y2="1023" gradientUnits="userSpaceOnUse">
<stop stop-color="#F53D47" stop-opacity="0.62"/>
<stop offset="0.565206" stop-color="#41C7D2" stop-opacity="0.44"/>
<stop offset="1" stop-color="#00507C" stop-opacity="0.81"/>
</linearGradient>
<clipPath id="clip0_894_22">
<rect width="102.064" height="102.064" fill="white" transform="translate(1409.35 112.889) rotate(0.258527)"/>
</clipPath>
<clipPath id="clip1_894_22">
<rect width="102.064" height="102.064" fill="white" transform="translate(1789.2 788.502) rotate(-0.171781)"/>
</clipPath>
<clipPath id="clip2_894_22">
<rect width="102.064" height="102.064" fill="white" transform="translate(1033.2 113.936) rotate(-0.416066)"/>
</clipPath>
</defs>
</svg>
